<svg width="365" height="60" viewBox="0 0 365 60" fill="none" xmlns="http://www.w3.org/2000/svg">
<path d="M81.7943 51.6357L78.2789 39.4669H79.5718L82.4197 49.5146L85.2506 39.4753L86.552 39.4669L89.3998 49.5146L92.2308 39.4669H93.5322L90.0252 51.6357H88.7745L85.9013 41.6556L83.045 51.6357H81.7943ZM97.9949 51.6357V39.4669H99.2371V44.9513H105.964V39.4669H107.198V51.6357H105.964V46.1428H99.2371V51.6357H97.9949ZM112.565 51.6357V39.4669H120.17V40.6584H113.807V44.8668H119.156V46.0583H113.807V50.4442H120.17V51.6357H112.565ZM125.204 51.6357V39.4669H129.902C130.021 39.4669 130.153 39.4725 130.3 39.4838C130.452 39.4894 130.604 39.5063 130.756 39.5345C131.393 39.6302 131.931 39.8528 132.37 40.2021C132.815 40.5457 133.15 40.9795 133.376 41.5035C133.607 42.0274 133.722 42.6077 133.722 43.2443C133.722 44.1626 133.48 44.9597 132.995 45.6358C132.511 46.3118 131.818 46.7372 130.916 46.9118L130.485 47.0132H126.446V51.6357H125.204ZM132.573 51.6357L130.173 46.6837L131.364 46.2273L134.001 51.6357H132.573ZM126.446 45.8301H129.869C129.97 45.8301 130.088 45.8245 130.224 45.8132C130.359 45.802 130.491 45.7823 130.621 45.7541C131.038 45.664 131.378 45.4921 131.643 45.2386C131.914 44.9851 132.114 44.6837 132.243 44.3344C132.378 43.9851 132.446 43.6217 132.446 43.2443C132.446 42.8668 132.378 42.5034 132.243 42.1541C132.114 41.7992 131.914 41.495 131.643 41.2415C131.378 40.988 131.038 40.8161 130.621 40.726C130.491 40.6978 130.359 40.6809 130.224 40.6753C130.088 40.664 129.97 40.6584 129.869 40.6584H126.446V45.8301ZM138.866 51.6357V39.4669H146.472V40.6584H140.108V44.8668H145.458V46.0583H140.108V50.4442H146.472V51.6357H138.866ZM160.982 51.6357L156.79 39.4669H158.083L161.793 50.2244L165.528 39.4669H166.821L162.629 51.6357H160.982ZM169.055 51.6357L173.247 39.4669H174.895L179.086 51.6357H177.793L173.813 40.1598H174.303L170.348 51.6357H169.055ZM170.923 48.6864V47.5203H177.21V48.6864H170.923ZM183.781 51.6357V39.4669H185.023V50.4442H190.804V51.6357H183.781ZM199.993 51.8892C199.064 51.8892 198.241 51.6977 197.526 51.3146C196.816 50.9315 196.258 50.3906 195.853 49.6921C195.447 48.9935 195.244 48.1766 195.244 47.2414V39.4753L196.495 39.4669V47.0808C196.495 47.7118 196.602 48.2583 196.816 48.7202C197.03 49.1766 197.309 49.554 197.653 49.8526C198.002 50.1456 198.382 50.3625 198.794 50.5033C199.205 50.6442 199.605 50.7146 199.993 50.7146C200.388 50.7146 200.791 50.6442 201.202 50.5033C201.613 50.3625 201.991 50.1456 202.334 49.8526C202.678 49.554 202.957 49.1766 203.171 48.7202C203.385 48.2583 203.492 47.7118 203.492 47.0808V39.4669H204.743V47.2414C204.743 48.1766 204.54 48.9935 204.134 49.6921C203.729 50.385 203.168 50.9258 202.453 51.3146C201.743 51.6977 200.923 51.8892 199.993 51.8892ZM210.111 51.6357V39.4669H217.717V40.6584H211.354V44.8668H216.703V46.0583H211.354V50.4442H217.717V51.6357H210.111ZM232.37 51.6357V40.6584H228.12V39.4669H237.863V40.6584H233.613V51.6357H232.37ZM241.043 51.6357L245.235 39.4669H246.883L251.074 51.6357H249.781L245.801 40.1598H246.291L242.336 51.6357H241.043ZM242.911 48.6864V47.5203H249.198V48.6864H242.911ZM255.6 51.6357V39.4669H256.842V45.2133L262.394 39.4669H263.983L258.313 45.34L264.448 51.6357H262.825L256.842 45.5513V51.6357H255.6ZM268.635 51.6357V39.4669H276.241V40.6584H269.877V44.8668H275.227V46.0583H269.877V50.4442H276.241V51.6357H268.635ZM285.054 51.8892C284.203 51.8892 283.437 51.7484 282.755 51.4667C282.079 51.1794 281.519 50.7737 281.074 50.2498C280.634 49.7259 280.347 49.1033 280.212 48.3822L281.479 48.171C281.682 48.9597 282.11 49.5794 282.764 50.0301C283.417 50.4752 284.197 50.6977 285.104 50.6977C285.702 50.6977 286.237 50.6047 286.71 50.4188C287.183 50.2273 287.555 49.9568 287.826 49.6076C288.096 49.2583 288.231 48.8442 288.231 48.3653C288.231 48.0498 288.175 47.7822 288.062 47.5625C287.949 47.3372 287.8 47.1513 287.614 47.0048C287.428 46.8583 287.226 46.7372 287.006 46.6414C286.786 46.54 286.572 46.4583 286.364 46.3963L283.279 45.4752C282.907 45.3682 282.564 45.233 282.248 45.0696C281.933 44.9006 281.657 44.7006 281.42 44.4696C281.189 44.233 281.009 43.9569 280.879 43.6414C280.75 43.326 280.685 42.9654 280.685 42.5598C280.685 41.8725 280.865 41.2781 281.226 40.7767C281.586 40.2753 282.079 39.8894 282.704 39.619C283.33 39.3486 284.043 39.2162 284.842 39.2218C285.654 39.2218 286.378 39.3655 287.014 39.6528C287.657 39.9401 288.186 40.3514 288.603 40.8866C289.02 41.4161 289.296 42.0443 289.431 42.771L288.13 43.0077C288.045 42.4781 287.851 42.0189 287.547 41.6302C287.242 41.2415 286.854 40.9429 286.38 40.7344C285.913 40.5204 285.397 40.4105 284.834 40.4049C284.288 40.4049 283.8 40.4978 283.372 40.6837C282.95 40.864 282.614 41.1119 282.366 41.4274C282.119 41.7429 281.995 42.1034 281.995 42.5091C281.995 42.9203 282.107 43.2499 282.333 43.4978C282.564 43.7457 282.845 43.94 283.178 44.0809C283.516 44.2217 283.843 44.3372 284.158 44.4274L286.541 45.1288C286.789 45.1964 287.079 45.2949 287.411 45.4245C287.749 45.5485 288.076 45.7287 288.392 45.9654C288.713 46.1963 288.978 46.5006 289.186 46.878C289.395 47.2555 289.499 47.7343 289.499 48.3146C289.499 48.878 289.386 49.3822 289.161 49.8273C288.941 50.2723 288.628 50.647 288.223 50.9512C287.823 51.2554 287.352 51.4864 286.811 51.6441C286.276 51.8075 285.69 51.8892 285.054 51.8892ZM300.627 51.6357V39.4669H307.615V40.7091H301.869V44.9344H306.601V46.1682H301.869V51.6357H300.627ZM317.07 51.8892C315.859 51.8892 314.836 51.6216 314.002 51.0864C313.169 50.5456 312.538 49.7991 312.109 48.847C311.681 47.8949 311.467 46.7963 311.467 45.5513C311.467 44.3062 311.681 43.2077 312.109 42.2556C312.538 41.3035 313.169 40.5598 314.002 40.0246C314.836 39.4838 315.859 39.2133 317.07 39.2133C318.287 39.2133 319.309 39.4838 320.138 40.0246C320.971 40.5598 321.602 41.3035 322.03 42.2556C322.464 43.2077 322.681 44.3062 322.681 45.5513C322.681 46.7963 322.464 47.8949 322.03 48.847C321.602 49.7991 320.971 50.5456 320.138 51.0864C319.309 51.6216 318.287 51.8892 317.07 51.8892ZM317.07 50.6977C318.022 50.6977 318.816 50.4808 319.453 50.047C320.09 49.6132 320.566 49.0104 320.881 48.2386C321.202 47.4611 321.363 46.5653 321.363 45.5513C321.363 44.5372 321.202 43.6443 320.881 42.8724C320.566 42.1006 320.09 41.4978 319.453 41.064C318.816 40.6302 318.022 40.4105 317.07 40.4049C316.118 40.4049 315.326 40.6218 314.695 41.0556C314.064 41.4894 313.588 42.095 313.267 42.8724C312.952 43.6443 312.791 44.5372 312.786 45.5513C312.78 46.5653 312.935 47.4583 313.25 48.2301C313.571 48.9963 314.05 49.5991 314.687 50.0385C315.324 50.4723 316.118 50.692 317.07 50.6977ZM327.374 51.6357V39.4669H332.072C332.19 39.4669 332.323 39.4725 332.469 39.4838C332.621 39.4894 332.773 39.5063 332.926 39.5345C333.562 39.6302 334.1 39.8528 334.54 40.2021C334.985 40.5457 335.32 40.9795 335.545 41.5035C335.776 42.0274 335.892 42.6077 335.892 43.2443C335.892 44.1626 335.649 44.9597 335.165 45.6358C334.68 46.3118 333.987 46.7372 333.086 46.9118L332.655 47.0132H328.616V51.6357H327.374ZM334.742 51.6357L332.342 46.6837L333.534 46.2273L336.171 51.6357H334.742ZM328.616 45.8301H332.038C332.14 45.8301 332.258 45.8245 332.393 45.8132C332.528 45.802 332.661 45.7823 332.79 45.7541C333.207 45.664 333.548 45.4921 333.813 45.2386C334.083 44.9851 334.283 44.6837 334.413 44.3344C334.548 43.9851 334.616 43.6217 334.616 43.2443C334.616 42.8668 334.548 42.5034 334.413 42.1541C334.283 41.7992 334.083 41.495 333.813 41.2415C333.548 40.988 333.207 40.8161 332.79 40.726C332.661 40.6978 332.528 40.6809 332.393 40.6753C332.258 40.664 332.14 40.6584 332.038 40.6584H328.616V45.8301ZM341.036 51.6357V39.4669H342.177L346.96 49.7005L351.717 39.4669H352.875V51.6272H351.692V42.2387L347.357 51.6357H346.554L342.227 42.2387V51.6357H341.036Z" fill="#BCA06A"/>
<path d="M69.0704 26.6357V25.4526H69.4366C70.0751 25.4526 70.6197 25.3399 71.0704 25.1146C71.5211 24.8705 71.7464 24.3071 71.7464 23.4245V9.62186C71.7464 8.79559 71.5117 8.26977 71.0422 8.04442C70.5915 7.81907 70.0563 7.7064 69.4366 7.7064H69.0704V6.52332H77.2675V7.7064H76.9013C76.2628 7.7064 75.7182 7.82846 75.2675 8.07259C74.8168 8.29794 74.5915 8.85192 74.5915 9.73454V15.4246H83.7462V9.73454C83.7462 8.85192 83.5209 8.29794 83.0702 8.07259C82.6195 7.82846 82.0749 7.7064 81.4364 7.7064H81.0702V6.52332H89.2673V7.7064H88.9011C88.2626 7.7064 87.718 7.82846 87.2673 8.07259C86.8166 8.29794 86.5913 8.85192 86.5913 9.73454V23.5653C86.5913 24.3916 86.8166 24.9174 87.2673 25.1428C87.7368 25.3493 88.2814 25.4526 88.9011 25.4526H89.2673V26.6357H81.0702V25.4526H81.4364C82.0749 25.4526 82.6195 25.3399 83.0702 25.1146C83.5209 24.8705 83.7462 24.3071 83.7462 23.4245V16.833H74.5915V23.4245C74.5915 24.3071 74.8168 24.8705 75.2675 25.1146C75.7182 25.3399 76.2628 25.4526 76.9013 25.4526H77.2675V26.6357H69.0704ZM103.492 26.9174C101.501 26.9174 99.8484 26.4855 98.5339 25.6216C97.2193 24.7578 96.2334 23.5465 95.5762 21.9879C94.9377 20.4292 94.6184 18.6076 94.6184 16.5232C94.6184 14.4387 94.9377 12.6265 95.5762 11.0866C96.2334 9.54675 97.2193 8.35428 98.5339 7.50922C99.8672 6.64538 101.529 6.21346 103.52 6.21346C105.416 6.21346 107.013 6.64538 108.308 7.50922C109.623 8.35428 110.618 9.55614 111.294 11.1148C111.989 12.6547 112.336 14.4669 112.336 16.5513C112.336 18.6358 111.989 20.4574 111.294 22.016C110.618 23.5559 109.623 24.7578 108.308 25.6216C106.994 26.4855 105.388 26.9174 103.492 26.9174ZM103.492 25.3963C105.595 25.3963 107.069 24.6169 107.914 23.0583C108.778 21.4996 109.21 19.3306 109.21 16.5513C109.21 13.7533 108.778 11.5843 107.914 10.0444C107.069 8.50451 105.604 7.73457 103.52 7.73457C101.416 7.73457 99.9235 8.50451 99.0409 10.0444C98.1771 11.5843 97.7452 13.7533 97.7452 16.5513C97.7452 19.3306 98.1771 21.4996 99.0409 23.0583C99.9235 24.6169 101.407 25.3963 103.492 25.3963ZM126.849 26.9174C124.633 26.9174 122.896 26.4291 121.637 25.4526C120.379 24.4761 119.75 22.8423 119.75 20.5513V9.62186C119.75 8.79559 119.515 8.26977 119.046 8.04442C118.595 7.81907 118.06 7.7064 117.44 7.7064H117.074V6.52332H125.271V7.7064H124.905C124.266 7.7064 123.722 7.82846 123.271 8.07259C122.82 8.29794 122.595 8.85192 122.595 9.73454V20.7203C122.595 22.3541 123.036 23.5184 123.919 24.2132C124.802 24.8892 125.928 25.2273 127.299 25.2273C128.914 25.2273 130.107 24.8141 130.877 23.9878C131.647 23.1616 132.032 22.1099 132.032 20.833V9.62186C132.032 8.79559 131.797 8.26977 131.327 8.04442C130.877 7.81907 130.341 7.7064 129.722 7.7064H129.356V6.52332H136.426V7.7064H136.06C135.421 7.7064 134.877 7.82846 134.426 8.07259C133.975 8.29794 133.75 8.85192 133.75 9.73454V20.8893C133.75 22.7672 133.158 24.2414 131.975 25.3118C130.792 26.3822 129.083 26.9174 126.849 26.9174ZM146.505 26.9174C144.664 26.9174 143.265 26.5512 142.307 25.8188C141.368 25.0864 140.899 24.1287 140.899 22.9456C140.899 22.3822 141.077 21.9315 141.434 21.5935C141.791 21.2367 142.289 21.0583 142.927 21.0583C142.965 21.8283 143.115 22.5606 143.378 23.2555C143.641 23.9315 144.044 24.4855 144.589 24.9174C145.134 25.3306 145.847 25.5371 146.73 25.5371C147.988 25.5371 148.974 25.2367 149.688 24.6357C150.401 24.016 150.758 23.1334 150.758 21.9879C150.758 21.2931 150.617 20.7109 150.335 20.2414C150.073 19.7532 149.622 19.3025 148.983 18.8893C148.364 18.4762 147.5 18.0443 146.392 17.5936C144.645 16.88 143.34 16.0443 142.476 15.0866C141.631 14.1288 141.209 12.88 141.209 11.3401C141.209 10.2697 141.472 9.35896 141.998 8.60779C142.542 7.83785 143.275 7.2557 144.195 6.86134C145.134 6.4482 146.195 6.24163 147.378 6.24163C149.049 6.24163 150.345 6.56088 151.265 7.19936C152.185 7.83785 152.645 8.57024 152.645 9.39652C152.645 9.99745 152.439 10.4575 152.026 10.7768C151.631 11.0772 151.096 11.2275 150.42 11.2275C150.42 10.6453 150.317 10.082 150.11 9.53736C149.922 8.99277 149.594 8.54207 149.124 8.18527C148.674 7.82846 148.054 7.65006 147.265 7.65006C146.176 7.65006 145.331 7.94114 144.73 8.52329C144.129 9.10544 143.829 9.88477 143.829 10.8613C143.829 11.6124 143.96 12.2509 144.223 12.7767C144.505 13.2838 144.965 13.7439 145.603 14.157C146.242 14.5514 147.105 14.9739 148.195 15.4246C149.847 16.1006 151.134 16.88 152.054 17.7626C152.974 18.6452 153.434 19.8095 153.434 21.2555C153.434 23.0395 152.805 24.4292 151.547 25.4244C150.307 26.4197 148.627 26.9174 146.505 26.9174ZM158.644 26.6357V25.4526H159.01C159.63 25.4526 160.165 25.3493 160.615 25.1428C161.085 24.9174 161.32 24.3916 161.32 23.5653V9.73454C161.32 8.85192 161.094 8.29794 160.644 8.07259C160.193 7.82846 159.648 7.7064 159.01 7.7064H158.644V6.52332H172.841L172.981 11.4528H171.517L171.376 10.2416C171.301 9.62187 171.075 9.08666 170.7 8.63596C170.343 8.16649 169.742 7.93175 168.897 7.93175H164.165V15.4246H170.953V16.8049H164.165V25.2273H169.601C170.484 25.2273 171.122 25.0019 171.517 24.5512C171.93 24.0817 172.183 23.5372 172.277 22.9174L172.474 21.7062H173.939L173.742 26.6357H158.644ZM198.3 26.9174C196.309 26.9174 194.657 26.4855 193.342 25.6216C192.028 24.7578 191.042 23.5465 190.384 21.9879C189.746 20.4292 189.427 18.6076 189.427 16.5232C189.427 14.4387 189.746 12.6265 190.384 11.0866C191.042 9.54675 192.028 8.35428 193.342 7.50922C194.675 6.64538 196.337 6.21346 198.328 6.21346C200.225 6.21346 201.821 6.64538 203.117 7.50922C204.431 8.35428 205.426 9.55614 206.102 11.1148C206.797 12.6547 207.145 14.4669 207.145 16.5513C207.145 18.6358 206.797 20.4574 206.102 22.016C205.426 23.5559 204.431 24.7578 203.117 25.6216C201.802 26.4855 200.196 26.9174 198.3 26.9174ZM198.3 25.3963C200.403 25.3963 201.877 24.6169 202.722 23.0583C203.586 21.4996 204.018 19.3306 204.018 16.5513C204.018 13.7533 203.586 11.5843 202.722 10.0444C201.877 8.50451 200.412 7.73457 198.328 7.73457C196.225 7.73457 194.732 8.50451 193.849 10.0444C192.985 11.5843 192.553 13.7533 192.553 16.5513C192.553 19.3306 192.985 21.4996 193.849 23.0583C194.732 24.6169 196.215 25.3963 198.3 25.3963ZM212.53 26.6357V25.4526H212.896C213.516 25.4526 214.051 25.3493 214.502 25.1428C214.971 24.9174 215.206 24.3916 215.206 23.5653V9.62186C215.206 8.79559 214.971 8.26977 214.502 8.04442C214.051 7.81907 213.516 7.7064 212.896 7.7064H212.53V6.52332H226.727L226.868 11.4528H225.403L225.262 10.2416C225.187 9.60309 224.953 9.05849 224.558 8.60779C224.183 8.1571 223.554 7.93175 222.671 7.93175H218.051V16.0725H224.84V17.4527H218.051V23.4245C218.051 24.3071 218.277 24.8705 218.727 25.1146C219.178 25.3399 219.723 25.4526 220.361 25.4526H221.291V26.6357H212.53ZM252.096 26.9174C249.918 26.9174 248.106 26.4855 246.66 25.6216C245.232 24.7578 244.162 23.5559 243.448 22.016C242.753 20.4574 242.406 18.6358 242.406 16.5513C242.406 14.5232 242.772 12.7392 243.505 11.1993C244.256 9.64064 245.364 8.42939 246.829 7.56556C248.293 6.68294 250.105 6.24163 252.265 6.24163C254.35 6.24163 255.908 6.5421 256.941 7.14303C257.974 7.74396 258.49 8.49512 258.49 9.39652C258.49 9.99745 258.237 10.4763 257.73 10.8331C257.223 11.1899 256.603 11.3683 255.871 11.3683C255.871 10.7862 255.749 10.2228 255.504 9.6782C255.279 9.11483 254.894 8.65474 254.35 8.29794C253.805 7.92236 253.073 7.73457 252.152 7.73457C249.767 7.73457 248.068 8.50451 247.054 10.0444C246.04 11.5655 245.533 13.7345 245.533 16.5513C245.533 19.3682 246.059 21.5372 247.11 23.0583C248.181 24.5606 249.993 25.3118 252.547 25.3118C253.091 25.3118 253.617 25.2836 254.124 25.2273C254.631 25.1709 255.082 25.0864 255.476 24.9737V20.4386C255.476 19.6123 255.242 19.0865 254.772 18.8612C254.321 18.6358 253.786 18.5231 253.166 18.5231H253.054V17.3401H260.378V18.5231H260.265C259.739 18.5231 259.279 18.6452 258.885 18.8893C258.509 19.1147 258.321 19.6687 258.321 20.5513V25.6216C257.382 26.0535 256.415 26.3822 255.42 26.6075C254.425 26.8141 253.317 26.9174 252.096 26.9174ZM264.684 26.6357V25.4526H265.05C265.688 25.4526 266.233 25.3399 266.684 25.1146C267.134 24.8705 267.36 24.3071 267.36 23.4245V9.73454C267.36 8.85192 267.134 8.29794 266.684 8.07259C266.233 7.82846 265.688 7.7064 265.05 7.7064H264.684V6.52332H272.881V7.7064H272.515C271.876 7.7064 271.331 7.82846 270.881 8.07259C270.43 8.29794 270.205 8.85192 270.205 9.73454V23.4245C270.205 24.3071 270.43 24.8705 270.881 25.1146C271.331 25.3399 271.876 25.4526 272.515 25.4526H272.881V26.6357H264.684ZM277.731 26.6357V25.4526H278.097C278.717 25.4526 279.252 25.3493 279.703 25.1428C280.172 24.9174 280.407 24.3916 280.407 23.5653V9.62186C280.407 8.79559 280.172 8.26977 279.703 8.04442C279.252 7.81907 278.717 7.7064 278.097 7.7064H277.731V6.52332H285.308C290.135 6.52332 292.548 8.3355 292.548 11.9599C292.548 12.9551 292.341 13.8002 291.928 14.495C291.515 15.1711 290.989 15.7157 290.351 16.1288C289.731 16.5419 289.083 16.8612 288.407 17.0865L292.266 23.1991C292.754 23.9503 293.224 24.5137 293.674 24.8892C294.125 25.2648 294.642 25.4526 295.224 25.4526H295.308V26.6357H294.914C293.75 26.6357 292.839 26.5794 292.182 26.4667C291.543 26.3352 291.027 26.0911 290.632 25.7343C290.238 25.3587 289.825 24.8141 289.393 24.1005L285.59 17.7626H283.252V23.5653C283.252 24.3916 283.477 24.9174 283.928 25.1428C284.398 25.3493 284.942 25.4526 285.562 25.4526H285.928V26.6357H277.731ZM285.224 16.4387C286.876 16.4387 288.003 16.0725 288.604 15.3401C289.224 14.6077 289.534 13.5091 289.534 12.0444C289.534 10.542 289.205 9.47163 288.548 8.83314C287.891 8.19466 286.764 7.87541 285.168 7.87541H283.252V16.4387H285.224ZM298.921 26.6357V25.4526H299.287C299.926 25.4526 300.47 25.3399 300.921 25.1146C301.372 24.8705 301.597 24.3071 301.597 23.4245V9.73454C301.597 8.85192 301.372 8.29794 300.921 8.07259C300.47 7.82846 299.926 7.7064 299.287 7.7064H298.921V6.52332H307.118V7.7064H306.752C306.113 7.7064 305.569 7.82846 305.118 8.07259C304.667 8.29794 304.442 8.85192 304.442 9.73454V23.4245C304.442 24.3071 304.667 24.8705 305.118 25.1146C305.569 25.3399 306.113 25.4526 306.752 25.4526H307.118V26.6357H298.921ZM311.968 26.6357V25.4526H312.334C312.954 25.4526 313.489 25.3493 313.94 25.1428C314.409 24.9174 314.644 24.3916 314.644 23.5653V9.62186C314.644 8.79559 314.409 8.26977 313.94 8.04442C313.489 7.81907 312.954 7.7064 312.334 7.7064H311.968V6.52332H319.546C324.372 6.52332 326.785 8.3355 326.785 11.9599C326.785 12.9551 326.578 13.8002 326.165 14.495C325.752 15.1711 325.226 15.7157 324.588 16.1288C323.968 16.5419 323.32 16.8612 322.644 17.0865L326.503 23.1991C326.991 23.9503 327.461 24.5137 327.912 24.8892C328.362 25.2648 328.879 25.4526 329.461 25.4526H329.545V26.6357H329.151C327.987 26.6357 327.076 26.5794 326.419 26.4667C325.78 26.3352 325.264 26.0911 324.869 25.7343C324.475 25.3587 324.062 24.8141 323.63 24.1005L319.827 17.7626H317.489V23.5653C317.489 24.3916 317.715 24.9174 318.165 25.1428C318.635 25.3493 319.179 25.4526 319.799 25.4526H320.165V26.6357H311.968ZM319.461 16.4387C321.114 16.4387 322.24 16.0725 322.841 15.3401C323.461 14.6077 323.771 13.5091 323.771 12.0444C323.771 10.542 323.442 9.47163 322.785 8.83314C322.128 8.19466 321.001 7.87541 319.405 7.87541H317.489V16.4387H319.461ZM332.088 26.6357V25.4526H332.623C333.167 25.4526 333.571 25.3118 333.834 25.0301C334.116 24.7484 334.426 24.1569 334.764 23.2555L341.017 6.52332H343.214L349.58 23.9597C349.787 24.5418 350.031 24.9362 350.313 25.1428C350.613 25.3493 351.036 25.4526 351.58 25.4526H351.946V26.6357H344.2V25.4526H344.848C345.975 25.4526 346.538 25.0019 346.538 24.1005C346.538 23.9503 346.519 23.7907 346.482 23.6217C346.444 23.4526 346.388 23.2649 346.313 23.0583L345.186 19.9034H337.778L336.707 22.8611C336.538 23.3118 336.454 23.7156 336.454 24.0724C336.454 24.9925 337.073 25.4526 338.313 25.4526H338.961V26.6357H332.088ZM338.313 18.495H344.679L342.933 13.5655C342.632 12.7392 342.36 11.9599 342.116 11.2275C341.872 10.4951 341.674 9.79088 341.524 9.11483C341.393 9.79088 341.224 10.4388 341.017 11.0585C340.81 11.6782 340.548 12.4293 340.228 13.312L338.313 18.495ZM354.343 33.3962V32.0722H354.597C355.404 32.0722 356.089 31.9126 356.653 31.5934C357.216 31.2929 357.648 30.7577 357.949 29.9878C358.249 29.2366 358.399 28.2037 358.399 26.8892V9.62186C358.399 8.79559 358.165 8.26977 357.695 8.04442C357.244 7.81907 356.709 7.7064 356.089 7.7064H355.723V6.52332H363.92V7.7064H363.554C362.916 7.7064 362.371 7.82846 361.92 8.07259C361.47 8.29794 361.244 8.85192 361.244 9.73454V26.861C361.244 28.5324 360.953 29.8469 360.371 30.8046C359.808 31.7624 359.038 32.429 358.061 32.8046C357.104 33.199 356.024 33.3962 354.822 33.3962H354.343Z" fill="#BCA06A"/>
<path d="M19.8264 7.04045V12.0783L27.7895 5.09032L35.59 12.0783V7.04045L27.7895 0.214981L19.8264 7.04045Z" fill="#BCA06A" stroke="#BCA06A" stroke-width="0.325022"/>
<path d="M35.59 52.5436L35.59 47.5057L27.6269 54.4937L19.8264 47.5057L19.8264 52.5436L27.6269 59.369L35.59 52.5436Z" fill="#BCA06A" stroke="#BCA06A" stroke-width="0.325022"/>
<path d="M0 46.8557V44.8291H0.551756C1.51379 44.8291 2.33435 44.6361 3.01344 44.25C3.69252 43.8318 4.03206 42.8668 4.03206 41.3549V17.9041C4.03206 16.3922 3.69252 15.4432 3.01344 15.0572C2.33435 14.639 1.51379 14.4299 0.551756 14.4299H0V12.4033H12.3508V14.4299H11.7991C10.8371 14.4299 10.0165 14.639 9.33741 15.0572C8.65833 15.4432 8.31878 16.3922 8.31878 17.9041V41.3549C8.31878 42.8668 8.65833 43.8318 9.33741 44.25C10.0165 44.6361 10.8371 44.8291 11.7991 44.8291H12.3508V46.8557H0Z" fill="#BCA06A"/>
<path d="M43.553 46.8557V44.8291H44.1047C45.0668 44.8291 45.8873 44.6361 46.5664 44.25C47.2455 43.8318 47.585 42.8668 47.585 41.3549V17.9041C47.585 16.3922 47.2455 15.4432 46.5664 15.0572C45.8873 14.639 45.0668 14.4299 44.1047 14.4299H43.553V12.4033H55.9038V14.4299H55.3521C54.39 14.4299 53.5695 14.639 52.8904 15.0572C52.2113 15.4432 51.8718 16.3922 51.8718 17.9041V41.3549C51.8718 42.8668 52.2113 43.8318 52.8904 44.25C53.5695 44.6361 54.39 44.8291 55.3521 44.8291H55.9038V46.8557H43.553Z" fill="#BCA06A"/>
<path d="M13.2293 13.4794V45.7796C13.2293 47.862 12.9363 49.1912 12.3504 49.7672C11.7646 50.2989 11.0566 50.5648 10.2266 50.5648H9.75061V53.3561H17.5511V5.90287H9.75061V8.69424H10.2266C11.0566 8.69424 11.7646 8.98224 12.3504 9.55823C12.9363 10.0899 13.2293 11.397 13.2293 13.4794Z" fill="#BCA06A"/>
<path d="M43.5534 9.55823C42.9675 10.0899 42.6746 11.397 42.6746 13.4794V23.9416H38.3527V5.90287H46.1532V8.69424H45.6772C44.8472 8.69424 44.1392 8.98224 43.5534 9.55823Z" fill="#BCA06A"/>
<path d="M46.1532 53.0311H38.3527V35.4799H42.6746V45.4545C42.6746 47.537 42.9675 48.8662 43.5534 49.4422C44.1392 49.9739 44.8472 50.2397 45.6772 50.2397H46.1532V53.0311Z" fill="#BCA06A"/>
<path d="M31.0683 43.2804L28.2769 43.2804L28.2769 35.4799L40.1403 35.4799L40.1403 39.8018L35.8535 39.8018C33.7711 39.8018 32.4418 40.0947 31.8658 40.6806C31.3342 41.2665 31.0683 41.9744 31.0683 42.8044L31.0683 43.2804Z" fill="#BCA06A"/>
<rect x="8.12561" y="27.3543" width="5.20036" height="4.55031" fill="#BCA06A"/>
<rect x="19.5013" y="27.3543" width="28.2769" height="4.55031" fill="#BCA06A"/>
</svg>
