<svg width="500" height="500" viewBox="0 0 500 500" fill="none" xmlns="http://www.w3.org/2000/svg">
<rect width="500" height="500" fill="#151515"/>
<path d="M194.19 93.8851V128.491L248.889 80.4893L302.472 128.491V93.8851L248.889 47L194.19 93.8851Z" fill="white" stroke="white" stroke-width="2.23262"/>
<path d="M302.472 406.452L302.472 371.846L247.773 419.848L194.19 371.846L194.19 406.452L247.773 453.337L302.472 406.452Z" fill="white" stroke="white" stroke-width="2.23262"/>
<path d="M58 367.381V353.46H61.7901C68.3984 353.46 74.035 352.134 78.6997 349.483C83.3644 346.61 85.6968 339.981 85.6968 329.596V168.509C85.6968 158.124 83.3644 151.605 78.6997 148.953C74.035 146.081 68.3984 144.644 61.7901 144.644H58V130.723H142.84V144.644H139.05C132.441 144.644 126.805 146.081 122.14 148.953C117.475 151.605 115.143 158.124 115.143 168.509V329.596C115.143 339.981 117.475 346.61 122.14 349.483C126.805 352.134 132.441 353.46 139.05 353.46H142.84V367.381H58Z" fill="white"/>
<path d="M357.171 367.381V353.46H360.961C367.57 353.46 373.206 352.134 377.871 349.483C382.536 346.61 384.868 339.981 384.868 329.596V168.509C384.868 158.124 382.536 151.605 377.871 148.953C373.206 146.081 367.57 144.644 360.961 144.644H357.171V130.723H442.011V144.644H438.221C431.613 144.644 425.976 146.081 421.311 148.953C416.647 151.605 414.314 158.124 414.314 168.509V329.596C414.314 339.981 416.647 346.61 421.311 349.483C425.976 352.134 431.613 353.46 438.221 353.46H442.011V367.381H357.171Z" fill="white"/>
<path d="M148.874 138.115V359.989C148.874 374.294 146.862 383.424 142.837 387.381C138.813 391.033 133.95 392.859 128.249 392.859H124.979V412.034H178.562V86.0709H124.979V105.245H128.249C133.95 105.245 138.813 107.223 142.837 111.18C146.862 114.832 148.874 123.811 148.874 138.115Z" fill="white"/>
<path d="M357.174 111.18C353.149 114.832 351.137 123.811 351.137 138.115V209.981H321.449V86.0709H375.032V105.245H371.762C366.061 105.245 361.198 107.223 357.174 111.18Z" fill="white"/>
<path d="M375.032 409.801H321.449V289.239H351.137V357.757C351.137 372.061 353.149 381.192 357.174 385.148C361.198 388.801 366.061 390.627 371.762 390.627H375.032V409.801Z" fill="white"/>
<path d="M271.412 342.822L252.238 342.822L252.238 289.239L333.729 289.239L333.729 318.927L304.283 318.927C289.978 318.927 280.847 320.939 276.891 324.964C273.238 328.988 271.412 333.851 271.412 339.553L271.412 342.822Z" fill="white"/>
<rect x="113.816" y="233.424" width="35.722" height="31.2567" fill="white"/>
<rect x="191.957" y="233.424" width="194.238" height="31.2567" fill="white"/>
</svg>
